<svg xmlns="http://www.w3.org/2000/svg" xmlns:xlink="http://www.w3.org/1999/xlink" width="45.655" height="52.503" viewBox="0 0 45.655 52.503">
  <defs>
    <linearGradient id="linear-gradient" x1="0.5" x2="0.5" y2="1" gradientUnits="objectBoundingBox">
      <stop offset="0" stop-color="#df2539"/>
      <stop offset="0.35" stop-color="#c90013"/>
    </linearGradient>
    <clipPath id="clip-path">
      <rect id="長方形_6545" data-name="長方形 6545" width="45.655" height="52.503" transform="translate(180 17)" fill="url(#linear-gradient)"/>
    </clipPath>
    <linearGradient id="linear-gradient-2" x1="0.5" x2="0.5" y2="1" gradientUnits="objectBoundingBox">
      <stop offset="0" stop-color="#4c4948"/>
      <stop offset="0.35"/>
    </linearGradient>
    <linearGradient id="linear-gradient-3" x1="0.5" x2="0.5" y2="1" gradientUnits="objectBoundingBox">
      <stop offset="0" stop-color="#e83d4a"/>
      <stop offset="0.35" stop-color="#d6051a"/>
    </linearGradient>
    <linearGradient id="linear-gradient-4" y1="0" y2="1" xlink:href="#linear-gradient-3"/>
    <linearGradient id="linear-gradient-7" x1="0.5" x2="0.5" y2="1" gradientUnits="objectBoundingBox">
      <stop offset="0" stop-color="#44403f"/>
      <stop offset="0.35"/>
    </linearGradient>
    <linearGradient id="linear-gradient-8" x1="0.5" y1="0" x2="0.5" y2="1" xlink:href="#linear-gradient-7"/>
    <linearGradient id="linear-gradient-9" x1="0.499" y1="0" x2="0.499" y2="0.999" xlink:href="#linear-gradient-7"/>
    <linearGradient id="linear-gradient-10" x1="0.5" y1="0.002" x2="0.5" y2="1" xlink:href="#linear-gradient-7"/>
    <linearGradient id="linear-gradient-11" x1="0.5" y1="0" x2="0.5" y2="1" xlink:href="#linear-gradient-7"/>
    <linearGradient id="linear-gradient-13" x1="0.499" y1="0.001" x2="0.499" y2="1" xlink:href="#linear-gradient-7"/>
  </defs>
  <g id="マスクグループ_1" data-name="マスクグループ 1" transform="translate(-180 -17)" clip-path="url(#clip-path)">
    <g id="レイヤー_4" data-name="レイヤー 4" transform="translate(180 17.137)">
      <path id="パス_11281" data-name="パス 11281" d="M66.016,14.712,58.829,7.524,40.744,25.609l.008.005-.008.008L58.829,43.707l7.188-7.19-10.9-10.9Z" transform="translate(-21.043 -7.524)" fill="url(#linear-gradient-2)"/>
      <path id="パス_11282" data-name="パス 11282" d="M8.38,48l7.19,7.188L33.653,37.107l-.008-.008.008-.008L15.57,19.01,8.38,26.2l10.9,10.9Z" transform="translate(-8.38 -12.018)" fill="url(#linear-gradient-3)"/>
      <path id="パス_11283" data-name="パス 11283" d="M48.519,83.828l-.971-.976-3.186,3.186h0l0,0,3.186,3.186.982-.959-2.2-2.23Z" transform="translate(-22.459 -36.998)" fill="url(#linear-gradient-4)"/>
      <path id="パス_11284" data-name="パス 11284" d="M45.134,83.6l-.375-.375-.944.944h0l.944.941.375-.375-.569-.566Z" transform="translate(-22.245 -37.145)" fill="url(#linear-gradient-2)"/>
      <path id="パス_11285" data-name="パス 11285" d="M42.129,85.338l.375.375.944-.941v0h0l-.944-.941-.375.375.569.566Z" transform="translate(-21.585 -37.38)" fill="url(#linear-gradient-4)"/>
      <path id="パス_11286" data-name="パス 11286" d="M13.892,85.388a1.669,1.669,0,0,1-.488,1.231,1.847,1.847,0,0,1-1.367.521h-1.08v2.114H9.86V83.636h2.177a1.847,1.847,0,0,1,1.367.521A1.674,1.674,0,0,1,13.892,85.388Zm-1.1,0a.755.755,0,0,0-.219-.561.815.815,0,0,0-.594-.214H10.958v1.545h1.024a.833.833,0,0,0,.594-.209.755.755,0,0,0,.219-.559Z" transform="translate(-8.959 -37.304)" stroke="#231815" stroke-miterlimit="10" stroke-width="0.413" fill="url(#linear-gradient-7)"/>
      <path id="パス_11287" data-name="パス 11287" d="M21.387,89.255H17.74V83.638h1.1v4.641h2.549Z" transform="translate(-12.043 -37.305)" stroke="#231815" stroke-miterlimit="10" stroke-width="0.413" fill="url(#linear-gradient-8)"/>
      <path id="パス_11288" data-name="パス 11288" d="M28.932,87.337a1.85,1.85,0,0,1-.591,1.424,2.265,2.265,0,0,1-2.952,0,1.85,1.85,0,0,1-.584-1.424v-3.7h1.1v3.654a.969.969,0,1,0,1.928,0V83.638h1.1Z" transform="translate(-14.806 -37.305)" stroke="#231815" stroke-miterlimit="10" stroke-width="0.413" fill="url(#linear-gradient-9)"/>
      <path id="パス_11289" data-name="パス 11289" d="M36.914,87.55a1.49,1.49,0,0,1-.586,1.258,2.381,2.381,0,0,1-1.495.453,2.756,2.756,0,0,1-2.051-.742l.71-.717a1.827,1.827,0,0,0,1.356.473q.992,0,1.007-.695a.609.609,0,0,0-.166-.468.9.9,0,0,0-.5-.2l-.68-.1a1.48,1.48,0,0,1-1.492-1.57,1.57,1.57,0,0,1,.528-1.233,2.071,2.071,0,0,1,1.429-.471,2.517,2.517,0,0,1,1.815.654l-.695.687a1.6,1.6,0,0,0-1.153-.385.921.921,0,0,0-.642.2.647.647,0,0,0-.227.5.539.539,0,0,0,.179.41.9.9,0,0,0,.5.211l.664.1a1.938,1.938,0,0,1,1.067.45A1.555,1.555,0,0,1,36.914,87.55Z" transform="translate(-17.928 -37.266)" stroke="#231815" stroke-miterlimit="10" stroke-width="0.413" fill="url(#linear-gradient-10)"/>
      <path id="パス_11290" data-name="パス 11290" d="M56.932,89.255H53.287V83.638h1.1v4.641h2.547Z" transform="translate(-25.951 -37.305)" stroke="#231815" stroke-miterlimit="10" stroke-width="0.413" fill="url(#linear-gradient-11)"/>
      <path id="パス_11291" data-name="パス 11291" d="M65.2,89.255H64.058l-.332-1.007h-2l-.34,1.007H60.245l2.046-5.617h.858Zm-1.762-1.918-.687-2.044-.717,2.044Z" transform="translate(-28.674 -37.305)" stroke="#231815" stroke-miterlimit="10" stroke-width="0.413" fill="url(#linear-gradient-11)"/>
      <path id="パス_11292" data-name="パス 11292" d="M73.108,87.554a1.492,1.492,0,0,1-.589,1.258,2.381,2.381,0,0,1-1.495.453,2.756,2.756,0,0,1-2.051-.742l.71-.71a1.827,1.827,0,0,0,1.356.473c.664,0,1.007-.232,1.007-.695a.609.609,0,0,0-.166-.468.886.886,0,0,0-.5-.2l-.68-.1a1.482,1.482,0,0,1-1.492-1.57,1.563,1.563,0,0,1,.531-1.233,2.064,2.064,0,0,1,1.427-.471,2.517,2.517,0,0,1,1.815.654l-.695.687a1.6,1.6,0,0,0-1.15-.385.929.929,0,0,0-.644.2.644.644,0,0,0-.224.5.536.536,0,0,0,.176.41.908.908,0,0,0,.5.211l.664.1a1.938,1.938,0,0,1,1.072.435A1.558,1.558,0,0,1,73.108,87.554Z" transform="translate(-32.089 -37.271)" stroke="#231815" stroke-miterlimit="10" stroke-width="0.413" fill="url(#linear-gradient-13)"/>
      <path id="パス_11293" data-name="パス 11293" d="M80.508,87.554a1.492,1.492,0,0,1-.589,1.258,2.371,2.371,0,0,1-1.495.453,2.751,2.751,0,0,1-2.051-.742l.71-.71a1.832,1.832,0,0,0,1.356.473q1.007,0,1.007-.695a.609.609,0,0,0-.166-.468.9.9,0,0,0-.5-.2l-.68-.1a1.479,1.479,0,0,1-1.49-1.57,1.57,1.57,0,0,1,.529-1.233,2.064,2.064,0,0,1,1.427-.471,2.517,2.517,0,0,1,1.815.654l-.692.687a1.606,1.606,0,0,0-1.153-.385.929.929,0,0,0-.644.2.654.654,0,0,0-.224.5.536.536,0,0,0,.176.41.908.908,0,0,0,.5.211l.662.1a1.938,1.938,0,0,1,1.072.435A1.558,1.558,0,0,1,80.508,87.554Z" transform="translate(-34.984 -37.271)" stroke="#231815" stroke-miterlimit="10" stroke-width="0.413" fill="url(#linear-gradient-13)"/>
    </g>
  </g>
</svg>
