<svg xmlns="http://www.w3.org/2000/svg" width="400" height="400" viewBox="0 0 400 400">
  <g id="グループ_12" data-name="グループ 12" transform="translate(-564 -252)">
    <rect id="長方形_12" data-name="長方形 12" width="400" height="400" rx="200" transform="translate(564 252)" fill="#202124"/>
    <path id="パス_3" data-name="パス 3" d="M35.23,1.56A27.555,27.555,0,0,1,23.985-.65,24.188,24.188,0,0,1,15.34-7.085,29.225,29.225,0,0,1,9.75-17.42,46.184,46.184,0,0,1,7.8-31.46,37.883,37.883,0,0,1,10.2-45.305a32.706,32.706,0,0,1,6.37-10.465A28.057,28.057,0,0,1,25.74-62.4a26.018,26.018,0,0,1,10.79-2.34A23.369,23.369,0,0,1,46.735-62.6,34.411,34.411,0,0,1,55.38-56.55h.39l-.52-11.7V-92.56H65.91V0H57.07l-.91-8.32h-.39a38.051,38.051,0,0,1-9.3,6.955A23.283,23.283,0,0,1,35.23,1.56Zm2.21-8.97q9.36,0,17.81-9.49V-48.36a28.335,28.335,0,0,0-8.385-5.72,21.477,21.477,0,0,0-8.255-1.69,17.314,17.314,0,0,0-7.735,1.755,18.993,18.993,0,0,0-6.24,4.94,24.343,24.343,0,0,0-4.225,7.6,29.541,29.541,0,0,0-1.56,9.88q0,11.44,4.875,17.81T37.44-7.41ZM120.9,1.56A39.261,39.261,0,0,1,107.575-.65a30.992,30.992,0,0,1-10.79-6.5A30.677,30.677,0,0,1,89.5-17.615,35.3,35.3,0,0,1,86.84-31.72,34.135,34.135,0,0,1,89.5-45.5a31.774,31.774,0,0,1,7.15-10.4,31.279,31.279,0,0,1,10.27-6.565A32.914,32.914,0,0,1,119.08-64.74,32.664,32.664,0,0,1,131.235-62.6a25.186,25.186,0,0,1,9.1,6.045,26.177,26.177,0,0,1,5.655,9.36,35.736,35.736,0,0,1,1.95,12.09q0,1.82-.13,3.51a25.277,25.277,0,0,1-.39,2.99H97.63q1.04,10.79,7.865,16.185T122.2-7.02a30.972,30.972,0,0,0,10.335-1.625A43.41,43.41,0,0,0,141.44-13l3.9,7.02A50.539,50.539,0,0,1,134.615-.65,39.766,39.766,0,0,1,120.9,1.56Zm-1.56-57.85a21.7,21.7,0,0,0-7.475,1.3,21.138,21.138,0,0,0-6.435,3.705,20.319,20.319,0,0,0-4.81,6.045,26.845,26.845,0,0,0-2.73,8.32h40.3q-.65-9.75-5.655-14.56T119.34-56.29ZM189.28,0,162.63-63.18h10.79L187.98-27.3q1.95,4.81,3.705,9.425T195.13-8.71h.52q1.69-4.55,3.315-9.165T202.54-27.3L217.1-63.18h10.27L201.24,0Z" transform="translate(647 499)" fill="#f5f5f7"/>
  </g>
</svg>
