<svg xmlns="http://www.w3.org/2000/svg" xmlns:xlink="http://www.w3.org/1999/xlink" width="235.587" height="92.681" viewBox="0 0 235.587 92.681">
  <defs>
    <style>
      .cls-1 {
        fill: url(#linear-gradient);
      }

      .cls-2 {
        fill: url(#linear-gradient-3);
      }

      .cls-3 {
        fill: url(#linear-gradient-4);
      }

      .cls-4 {
        fill: #333;
      }

      .cls-5 {
        fill: none;
      }

      .cls-6 {
        fill: #e00008;
      }
    </style>
    <linearGradient id="linear-gradient" y1="0.5" x2="1" y2="0.5" gradientUnits="objectBoundingBox">
      <stop offset="0" stop-color="#252525"/>
      <stop offset="0.35"/>
    </linearGradient>
    <linearGradient id="linear-gradient-3" x1="0" y1="0.5" x2="1" y2="0.5" xlink:href="#linear-gradient"/>
    <linearGradient id="linear-gradient-4" y1="0.5" x2="1" y2="0.5" gradientUnits="objectBoundingBox">
      <stop offset="0" stop-color="#fa2138"/>
      <stop offset="0.35" stop-color="#e00008"/>
    </linearGradient>
  </defs>
  <g id="グループ_23" data-name="グループ 23" transform="translate(-137.975 -97.47)">
    <g id="グループ_19" data-name="グループ 19">
      <path id="パス_1601" data-name="パス 1601" class="cls-1" d="M257.157,143.8H230.646l-46.317,46.35H210.84Z"/>
      <path id="パス_1602" data-name="パス 1602" class="cls-1" d="M210.8,97.47H184.291l-46.317,46.35h26.511Z"/>
      <path id="パス_1603" data-name="パス 1603" class="cls-2" d="M220.709,107.4l-9.9-9.93h0l-9.914,9.921Z"/>
      <path id="パス_1604" data-name="パス 1604" class="cls-3" d="M243.891,130.581l-9.9-9.93h0l-9.914,9.921Z"/>
      <path id="パス_1605" data-name="パス 1605" class="cls-3" d="M151.273,157.061l9.9,9.93h0l9.914-9.922Z"/>
      <path id="パス_1606" data-name="パス 1606" class="cls-3" d="M233.988,120.649H207.477L161.161,167h26.511Z"/>
    </g>
    <g id="グループ_22" data-name="グループ 22">
      <g id="グループ_20" data-name="グループ 20">
        <path id="パス_1607" data-name="パス 1607" d="M369.437,119.641a1.422,1.422,0,0,1,1.417-1.418h1.291a1.421,1.421,0,0,0,1.417-1.417v-5.413a1.421,1.421,0,0,0-1.417-1.418h-13.67a1.421,1.421,0,0,0-1.417,1.418v5.413a1.421,1.421,0,0,0,1.417,1.417h1.294a1.421,1.421,0,0,1,1.417,1.418v39.725c0,.78.453.967,1,.418l6.244-6.218a3.938,3.938,0,0,0,1-2.418Z"/>
        <path id="パス_1608" data-name="パス 1608" class="cls-4" d="M369.437,157.986c0-.779-.45-.966-1-.414l-6.249,6.263a3.954,3.954,0,0,0-1,2.42v.409a1.421,1.421,0,0,1-1.417,1.417h-1.294a1.42,1.42,0,0,0-1.417,1.417v5.415a1.421,1.421,0,0,0,1.417,1.417h13.67a1.421,1.421,0,0,0,1.417-1.417V169.5a1.42,1.42,0,0,0-1.417-1.417h-1.291a1.422,1.422,0,0,1-1.417-1.417Z"/>
      </g>
      <g id="グループ_21" data-name="グループ 21">
        <rect id="長方形_1098" data-name="長方形 1098" class="cls-5" width="15.077" height="20.55" transform="translate(288.14 118.227)"/>
        <path id="パス_1609" data-name="パス 1609" d="M350.342,145.744a3.937,3.937,0,0,0-1-2.419l-3.55-3.546a3.954,3.954,0,0,0-2.42-1H328.438a1.422,1.422,0,0,1-1.417-1.418V119.641a1.422,1.422,0,0,1,1.417-1.418H340.67a1.422,1.422,0,0,1,1.417,1.418v2.729a1.422,1.422,0,0,0,1.417,1.418h5.421a1.422,1.422,0,0,0,1.417-1.418V111.393a1.422,1.422,0,0,0-1.417-1.418H343.5a1.422,1.422,0,0,0-1.417,1.418v.62c0,.779-.451.966-1,.415l-1.448-1.451a3.944,3.944,0,0,0-2.419-1h-11.48a3.942,3.942,0,0,0-2.419,1l-3.55,3.555a3.949,3.949,0,0,0-1,2.42v23.091a3.943,3.943,0,0,0,1,2.42l3.551,3.559a3.937,3.937,0,0,0,2.418,1H340.67a1.422,1.422,0,0,1,1.417,1.417v10.926c0,.78.452.967,1,.418l6.247-6.221a3.933,3.933,0,0,0,1-2.418Z"/>
        <path id="パス_1610" data-name="パス 1610" class="cls-6" d="M343.088,163.838a3.948,3.948,0,0,0-1,2.42v.406a1.422,1.422,0,0,1-1.417,1.417H328.438a1.422,1.422,0,0,1-1.417-1.417V163.94a1.421,1.421,0,0,0-1.417-1.418h-5.419a1.421,1.421,0,0,0-1.417,1.418v10.972a1.421,1.421,0,0,0,1.417,1.417H325.6a1.421,1.421,0,0,0,1.417-1.417v-.61c0-.779.452-.967,1-.415l1.443,1.44a3.947,3.947,0,0,0,2.42,1h11.482a3.955,3.955,0,0,0,2.42-1l3.55-3.545a3.939,3.939,0,0,0,1-2.419V157.985c0-.779-.45-.965-1-.414Z"/>
        <path id="パス_1611" data-name="パス 1611" d="M277.183,109.975a1.422,1.422,0,0,0-1.417,1.418v5.417a1.422,1.422,0,0,0,1.417,1.417h1.293a1.422,1.422,0,0,1,1.417,1.418v39.711c0,.78.452.968,1,.418l6.24-6.212a3.938,3.938,0,0,0,1-2.417v-2.7a1.421,1.421,0,0,1,1.416-1.417h14.93a3.942,3.942,0,0,0,2.419-1l3.561-3.561a3.939,3.939,0,0,0,1-2.419V116.953a3.937,3.937,0,0,0-1-2.419l-3.559-3.557a3.947,3.947,0,0,0-2.42-1Zm26.034,27.384a1.422,1.422,0,0,1-1.417,1.418H289.556a1.421,1.421,0,0,1-1.416-1.418V119.645a1.421,1.421,0,0,1,1.416-1.418H301.8a1.422,1.422,0,0,1,1.417,1.418Z"/>
        <path id="パス_1612" data-name="パス 1612" class="cls-4" d="M279.893,166.664a1.422,1.422,0,0,1-1.417,1.417h-1.293a1.421,1.421,0,0,0-1.417,1.417v5.414a1.422,1.422,0,0,0,1.417,1.417h13.76a1.422,1.422,0,0,0,1.417-1.417V169.5a1.421,1.421,0,0,0-1.417-1.417h-1.387a1.421,1.421,0,0,1-1.416-1.417v-8.683c0-.779-.451-.965-1-.414l-6.245,6.258a3.948,3.948,0,0,0-1,2.421Z"/>
      </g>
    </g>
  </g>
</svg>
